<?xml version="1.0" encoding="UTF-8"?>
<svg version="1.1" viewBox="0 0 1600 1600" width="1280" height="1280" xmlns="http://www.w3.org/2000/svg">
<path transform="translate(1145 680)" d="m0 0c1.54-0 3.07-0.01 4.61-0.01 3.21-0.01 6.42-0.01 9.63-0.01 4.09 0 8.18-0.01 12.3-0.03 3.17-0.01 6.34-0.01 9.51-0.01 1.51 0 3.02-0.01 4.53-0.01 14.5-0.07 14.5-0.07 21.5 2.24v2c1.3 0.1 2.6 0.2 3.94 0.31 7.23 0.82 13.6 3.25 20 6.61 1.41 0.73 2.83 1.44 4.27 2.13 6.81 3.27 13.2 7.13 19.7 11.1 1.68 1.01 3.38 2.01 5.13 2.89v2c0.7 0.22 1.4 0.45 2.12 0.69 5.61 2.55 9.58 7.01 13.9 11.3 0.76 0.55 1.53 1.11 2.31 1.69 0.84 0.65 0.84 0.65 1.69 1.31v2c0.56 0.21 1.12 0.43 1.7 0.65 3.07 1.8 4.83 4.09 7.05 6.85 0.8 0.98 1.6 1.96 2.42 2.97 1.83 2.53 1.83 2.53 1.83 4.53 0.99 0.33 1.98 0.66 3 1 5.23 5.21 8.24 12.2 11.4 18.7 1.51 3.18 1.51 3.18 3.12 5.75 1.83 3.1 3.27 6.33 4.68 9.64 0.41 0.93 0.41 0.93 0.82 1.88 1.22 2.85 1.99 4.87 1.99 8h2c0.42 1.6 0.42 1.6 0.84 3.24 0.37 1.4 0.73 2.8 1.1 4.2 0.18 0.7 0.36 1.41 0.55 2.14 0.69 3.49 0.69 3.49 2.51 6.42 0.74 4.46 1.02 8.61 0.87 13.1-0.08 6.82 1.35 13.3 3.13 19.9l1 1c0.31 3.51 0.28 7.04 0.31 10.6 0.03 0.98 0.06 1.96 0.09 2.96 0.04 4.74-0.02 8.35-2.42 12.5-2.81 4.85-2.28 9.5-1.98 15 0.36 6.67 0.37 11.4-3.03 17.3-1.16 2-1.74 3.92-2.22 6.18-0.37 1.73-0.37 1.73-0.75 3.5h-2c-0.05 0.56-0.1 1.12-0.16 1.69-1.11 7.89-4.75 13.9-8.81 20.6-2.06 3.43-3.91 6.98-5.8 10.5-1.23 2.21-1.23 2.21-3.23 5.21h-3c-0.08 0.55-0.17 1.11-0.25 1.69-1.47 4.53-4.73 7.35-8.31 10.3-2.23 1.84-3.46 3.03-4.94 5.56-1.74 2.83-3.85 4.15-6.59 5.97-2.92 2.25-5.12 5.03-7.43 7.89-0.49 0.52-0.98 1.04-1.48 1.58h-2c-0.34 1.17-0.34 1.17-0.69 2.37-1.64 3.3-2.95 3.42-6.31 4.63l-1 3c-1.53 1.39-1.53 1.39-3.5 2.81-0.72 0.52-1.43 1.04-2.17 1.57-3.09 2.14-6.23 4.19-9.37 6.24-2.1 1.38-2.1 1.38-4.02 3.57-2.31 2.15-4.64 2.89-7.6 3.89-2.79 1.09-5.29 2.5-7.9 3.98-5.59 3.12-9.95 4.94-16.4 4.94v2c-0.83 0.04-1.66 0.07-2.52 0.11-1.63 0.1-1.63 0.1-3.29 0.2-1.08 0.06-2.16 0.12-3.27 0.18-3.13 0.55-4.06 1.01-5.92 3.51l-1 2c-0.76 0.02-1.51 0.05-2.29 0.07-3.45 0.12-6.89 0.24-10.3 0.37-1.18 0.03-2.37 0.07-3.6 0.11-1.15 0.05-2.31 0.09-3.5 0.13-1.05 0.04-2.11 0.07-3.2 0.11-3.04 0.15-3.04 0.15-5.88 0.72-4.19 0.64-8.29 0.61-12.5 0.59-0.88-0.01-1.75-0.01-2.66-0.01-2.79 0-5.58-0.02-8.38-0.03-1.89 0-3.79-0.01-5.69-0.01-4.65-0.01-9.29-0.03-13.9-0.05v-2c-0.95 0.04-1.91 0.09-2.89 0.14-1.25 0.03-2.51 0.07-3.8 0.11-1.24 0.04-2.48 0.09-3.76 0.14-4.21-0.46-5.34-1.77-8.55-4.39-2.76-0.67-5.33-1.19-8.13-1.56-7.81-1.1-7.81-1.1-10.9-4.44-2.22-0.89-4.48-1.7-6.75-2.44-5.13-1.73-9.63-3.75-14.2-6.56-2.27-0.76-2.27-0.76-4-1v-2h-3c-1.37-1.29-2.71-2.63-4-4l-2-1v-2c-0.62-0.08-1.24-0.17-1.88-0.25-2.12-0.75-2.12-0.75-3.06-2.69-0.93-2.33-0.93-2.33-3.69-3.31-0.78-0.25-1.56-0.5-2.37-0.75v-2l-5-2v-2h-2c-0.4-1.21-0.4-1.21-0.81-2.44-0.39-0.85-0.79-1.69-1.19-2.56-0.99-0.33-1.98-0.66-3-1v-2c-0.99-0.33-1.98-0.66-3-1v-3c-0.87-0.37-0.87-0.37-1.75-0.75-2.58-1.44-4.31-3.04-6.25-5.25v-2h-2v-2h-2c-0.49-0.89-0.49-0.89-0.99-1.79-1.87-3.4-3.74-6.78-5.76-10.1-1.25-2.12-1.25-2.12-2.25-5.12l1-2h-2c-0.5-1.98-0.5-1.98-1-4h-2c-5.46-10.7-5.46-10.7-6.44-14.9-0.56-2.37-0.56-2.37-2.06-5.37-1.73-3.89-2.13-7.53-2.5-11.8h-2c-0.2-1.41-0.2-1.41-0.4-2.85-0.18-1.25-0.36-2.49-0.54-3.78-0.17-1.23-0.35-2.46-0.53-3.72-0.47-3.23-0.98-6.44-1.53-9.65h-2c-2.69-6.17-3.45-11.2-3.4-17.8 0-0.92 0-1.84-0.01-2.78 0-1.94 0.01-3.87 0.02-5.81 0.01-2.93 0-5.86-0.02-8.8 0-1.89 0.01-3.78 0.01-5.67 0-0.86-0.01-1.73-0.02-2.62 0.07-6.24 1.36-11.6 3.42-17.5h2c0.12-1.12 0.25-2.23 0.37-3.38 0.43-3.35 0.95-6.67 1.57-10 0.15-0.83 0.3-1.66 0.46-2.52 0.6-2.1 0.6-2.1 2.6-4.1 0.84-3.29 1.47-6.6 2.12-9.94 0.93-3.24 1.53-3.85 3.88-6.06 1.3-2.38 2.51-4.75 3.69-7.19 0.32-0.65 0.64-1.31 0.97-1.98l2.34-4.83h2c0.18-0.62 0.36-1.23 0.55-1.87 0.25-0.8 0.5-1.61 0.76-2.44 0.25-0.81 0.49-1.61 0.74-2.43 1.01-2.41 2.09-3.48 3.95-5.26 0.33-0.67 0.65-1.33 0.99-2.02 1.13-2.22 2.24-3.21 4.2-4.73 4.76-3.92 8.84-8.46 12.4-13.5 0.47-0.58 0.94-1.16 1.42-1.76h2c0.23-0.58 0.45-1.16 0.69-1.75 1.66-2.85 3.63-4.37 6.31-6.25h2c0.26-0.6 0.52-1.2 0.79-1.81 1.29-2.34 2.52-3.53 4.58-5.19 1.97-1.61 3.76-3.14 5.5-5 3.89-3.66 8.65-8 14.1-8 0.49-1.49 0.49-1.49 1-3l5-1v-3c0.64-0.2 1.28-0.39 1.93-0.59 0.83-0.26 1.66-0.52 2.51-0.79 0.82-0.25 1.64-0.51 2.49-0.77 2.25-0.66 2.25-0.66 3.07-2.85 1.86-0.75 1.86-0.75 4.19-1.44 2.75-0.86 5.06-1.7 7.62-3.06 4.11-1.93 8.27-2.84 12.7-3.85 2.43-0.41 2.43-0.41 3.51-1.65 1.58-0.32 3.16-0.61 4.75-0.88 3.11-0.58 5.09-1.03 7.81-2.68 7.45-4.39 18.9-2.61 27.4-2.61zm-13.9 12.2c-2.73 0.21-5.45 0.37-8.19 0.5-10.3 0.14-10.3 0.14-19.8 3.5v2c-0.88 0.18-1.76 0.36-2.67 0.55-1.16 0.25-2.32 0.5-3.52 0.76-1.15 0.24-2.29 0.49-3.48 0.74-3.24 0.92-5.54 2.1-8.33 3.95-1.05 0.49-1.05 0.49-2.13 1-1.9 0.89-1.9 0.89-3.19 2.37-1.98 1.92-4.1 3.22-6.43 4.69-4.73 3.25-7.57 6.7-10.6 11.5-1.54 2.33-3.18 4.32-5.05 6.38-2.88 2.78-2.88 2.78-2.56 6.06h-2c-1.45 2.97-2.88 5.95-4.31 8.94-0.41 0.83-0.81 1.66-1.23 2.51-3.72 7.78-6.69 15-7.05 23.7-0.41 1.85-0.41 1.85-3.41 3.85-0.7 2.87-0.7 2.87-1 6.19-0.96 7.31-0.96 7.31-2.5 10.6-3.87 8.38-3.83 16.9-3.87 26-0.01 1.31-0.02 2.61-0.03 3.96-0.02 2.76-0.02 5.52-0.03 8.28 0 3.5-0.04 6.99-0.08 10.5-0.04 3.39-0.04 6.77-0.05 10.2-0.02 1.24-0.04 2.47-0.06 3.74 0.05 9.77 2.25 17.9 6.62 26.7 0.31 2.82 0.51 5.64 0.72 8.47 0.13 2.52 0.13 2.52 1.28 4.53h2c-0.03 1.01-0.06 2.02-0.1 3.06 0.27 11 4.74 20.9 9.5 30.6 1.26 2.61 2.34 5.14 3.29 7.88 1.41 3.69 2.9 6.33 5.31 9.44h2c0.19 1.3 0.37 2.6 0.56 3.94 1.32 5.89 4.51 9.61 8.44 14.1 0.68 0.79 1.36 1.58 2.06 2.39 3.51 4.01 7.12 7.89 10.9 11.6 0.8 0.82 1.61 1.65 2.44 2.5 4.65 5.11 4.65 5.11 10.6 7.5v2c1.65 1.55 1.65 1.55 3.75 3.06 1.04 0.79 1.04 0.79 2.11 1.6 2.09 1.31 3.73 1.9 6.14 2.34v2c1.01 0.32 2.03 0.65 3.07 0.99 1.35 0.44 2.7 0.88 4.05 1.32 0.67 0.21 1.34 0.43 2.02 0.65 3.11 1.02 5.93 2.08 8.85 3.58 7.67 3.72 15.2 3.78 23.5 3.79 1.19 0.01 2.38 0.02 3.61 0.02 2.51 0.01 5.01 0.02 7.52 0.02 3.83 0 7.65 0.04 11.5 0.08 2.44 0 4.88 0.01 7.33 0.01 1.14 0.01 2.27 0.03 3.44 0.04 7.61-0.04 13.5-0.89 19.1-6.5 2.38-0.63 2.38-0.63 5.12-1.13 0.91-0.16 1.83-0.33 2.76-0.5 0.7-0.13 1.4-0.25 2.12-0.37v-3c0.76-0.13 1.53-0.25 2.31-0.38 2.89-0.5 2.89-0.5 5.69-2.62v-2c1.3-0.37 1.3-0.37 2.62-0.75 5.95-2.2 10-5.69 14.4-10.2 0.48-0.47 0.96-0.93 1.45-1.41 1.71-1.75 3.19-3.59 4.67-5.53 0.78-1 0.78-1 1.58-2.03 1.41-1.95 1.41-1.95 1.79-4.22 0.17-0.6 0.34-1.2 0.51-1.81 0.99-0.33 1.98-0.66 3-1 1.65-2.6 2-3.86 2-7h3c4.53-8.59 4.53-8.59 6-18h2c0.18-0.78 0.36-1.55 0.55-2.35 1.67-6.93 3.56-13.5 6.5-20 1.08-3.02 1.33-5.65 1.51-8.85 0.34-5.62 0.34-5.62 1.44-7.81 0.1-1.8 0.13-3.6 0.13-5.4 0-1.69 0-1.69 0.01-3.42 0-1.22-0.01-2.44-0.01-3.71 0-1.25 0-2.5 0.01-3.79 0-2.66-0.01-5.31-0.01-7.97-0.01-3.39 0-6.79 0-10.2 0.01-3.25 0.01-6.49 0-9.73 0.01-1.83 0.01-1.83 0.01-3.7 0-1.13-0.01-2.27-0.01-3.44v-3.02c-0.12-2.38-0.51-4.34-1.13-6.63-0.08-2.39-0.11-4.78-0.1-7.17 0-1.03 0-1.03 0.01-2.07 0-2.17 0.01-4.34 0.03-6.51 0-1.48 0.01-2.95 0.01-4.43 0.01-3.61 0.03-7.21 0.05-10.8h-2c-0.12-0.58-0.25-1.16-0.38-1.75-0.52-2.24-0.52-2.24-1.62-4-1-2.26-1.25-3.88-1.5-6.31-0.21-3.99-0.21-3.99-2.5-6.94-0.85-3.63-1.53-7.28-2.22-11-0.26-1.01-0.51-2.01-0.78-3.05l-2-1c-0.7-2.02-1.31-4.07-1.88-6.13-1.51-5.18-3.21-9.35-6.12-13.9l-1-2h-2c-0.19-0.97-0.37-1.94-0.56-2.94-1.52-5.25-4.99-8.93-8.44-13.1-0.77-0.98-1.53-1.95-2.32-2.95-0.78-0.99-1.56-1.97-2.37-2.99-0.72-0.92-1.45-1.83-2.2-2.78-1.99-2.15-3.42-3.22-6.11-4.28v-2c-3.06-3.03-3.06-3.03-7-4-0.22-0.58-0.44-1.16-0.67-1.76-4.67-7.87-18.1-13.2-26.3-16.2h-4v-2c-6.39-2.53-12.2-4.37-19-5l-1-1c-7.78-1.26-15.8-1.11-23.6-1.13-0.98 0-1.96-0.01-2.98-0.01-0.92 0-1.85 0-2.8 0.01h-2.53c-2.12 0-2.12 0-4.06 1.13zm-141 95-1 2h2l-1-2zm-6 16 1 3zm0 93 1 2zm277 45 1 2zm-9 18 1 2z" fill="#F9FAFB"/>
<path transform="translate(405 577)" d="m0 0c3.61 0.62 6.97 0.68 10.6 0.65 0.68 0 1.35 0 2.04-0.01 2.09-0.01 4.17-0.03 6.26-0.06 1.44-0.01 2.88-0.02 4.32-0.02 3.48-0.03 6.95-0.06 10.4-0.1l1 4c-0.99 0.06-1.98 0.12-3 0.18-8.08 0.46-8.08 0.46-16.1 1.32-3.88 0.5-3.88 0.5-6.93 0.57-8.07 0.27-12.8 1.74-19 6.93-0.65 0.5-1.3 1-1.96 1.52-5.65 4.52-9.11 9.44-11 16.5-0.19 2.83-0.28 5.56-0.28 8.39 0 0.84-0.01 1.67-0.01 2.53-0.02 2.78-0.02 5.57-0.03 8.36-0.01 2-0.02 4-0.03 6.01-0.03 5.47-0.04 10.9-0.05 16.4-0.02 5.82-0.05 11.6-0.07 17.5-0.04 9.88-0.08 19.8-0.11 29.6-0.04 13.6-0.09 27.1-0.15 40.7-0.19 46.4-0.3 92.7-0.31 139v8.89c-0.01 27.9 0.14 55.8 0.53 83.7 0.01 0.94 0.02 1.89 0.04 2.86 0.13 7.65 1.9 14.5 7.47 20 3 1.86 3 1.86 6.25 3.31 1.08 0.51 2.16 1.02 3.27 1.55 1.23 0.56 1.23 0.56 2.48 1.14v2c15.9-0.04 31.9-0.1 47.8-0.19 7.4-0.04 14.8-0.07 22.2-0.08 6.45-0.02 12.9-0.04 19.4-0.09 3.41-0.02 6.82-0.03 10.2-0.03 3.81-0.01 7.63-0.03 11.4-0.07 1.13 0.01 2.26 0.01 3.42 0.02 6.23-0.08 9.74-0.54 14.6-4.56 2.56-0.83 2.56-0.83 4.88-1.25 1.17-0.23 1.17-0.23 2.36-0.45 0.58-0.1 1.16-0.2 1.76-0.3v-2c0.94-0.17 0.94-0.17 1.9-0.33 1.23-0.24 1.23-0.24 2.48-0.48 0.81-0.16 1.62-0.31 2.46-0.46 2.52-0.61 2.52-0.61 4.16-3.73 1.71-0.72 3.42-1.44 5.14-2.13 5.23-2.44 8.7-6.76 12.3-11.1 1.64-1.83 3.37-3.33 5.27-4.89 2.86-2.36 4.48-4.62 6.31-7.87 0.74-0.72 1.49-1.45 2.25-2.19 9-9.2 15.3-21 17.3-33.7 0.6-3.03 1.93-5.46 3.42-8.14 0.71-1.8 0.71-1.8 1.44-3.63 1.5-3.25 2.88-5.06 5.56-7.37 0.99 0.33 1.98 0.66 3 1 0.06 2.58 0.1 5.16 0.13 7.75 0.01 0.73 0.03 1.46 0.05 2.21 0.03 3.92-0.15 6.67-2.18 10-0.04 1.66-0.04 3.33 0 5l-1 1c-2.1 14-2.37 28.1-2.56 42.2-0.55 36.9-0.55 36.9-2.44 38.8-2.38 0.11-4.74 0.16-7.12 0.16-0.76 0.01-1.51 0.01-2.29 0.02-2.55 0.02-5.1 0.03-7.66 0.04-1.82 0.01-3.64 0.02-5.47 0.03-4.98 0.04-9.97 0.06-15 0.08-4.19 0.02-8.38 0.05-12.6 0.07-9.95 0.06-19.9 0.11-29.8 0.16-10.1 0.04-20.3 0.1-30.4 0.16-8.77 0.05-17.5 0.1-26.3 0.14-5.2 0.03-10.4 0.06-15.6 0.09-24.1 0.15-48.2 0.01-72.4-0.59-10.7-0.27-21.3-0.41-32-0.37-7.39 0.03-14.8-0.1-22.2-0.21-1.59-0.02-3.17-0.05-4.76-0.07-4.1-0.06-8.19-0.12-12.3-0.18-4.21-0.06-8.42-0.12-12.6-0.18-8.21-0.11-16.4-0.23-24.6-0.35-0.49-1.49-0.49-1.49-1-3 0.74-0.13 1.49-0.25 2.25-0.38 2.67-0.46 2.67-0.46 4.52-1.64 2.97-1.31 5.5-1.31 8.75-1.4 1.25-0.03 2.5-0.07 3.79-0.11 1.95-0.05 1.95-0.05 3.94-0.1 1.32-0.04 2.64-0.07 3.99-0.11 3.26-0.1 6.51-0.18 9.76-0.26l1-3c2.31-0.33 4.62-0.66 7-1l2-5h2c0.25-0.66 0.5-1.32 0.75-2 1.3-3.11 2.79-6.06 4.35-9.04 2.36-5.13 2.24-10.5 2.46-16.1 0.04-1.05 0.09-2.1 0.13-3.18 0.5-14.2 0.42-28.3 0.37-42.4-0.01-4.19-0.02-8.38-0.02-12.6-0.02-8.16-0.04-16.3-0.06-24.5-0.02-6.64-0.04-13.3-0.06-19.9-0.04-18.8-0.09-37.7-0.15-56.6 0-1.01-0.01-2.02-0.01-3.07 0-1.01-0.01-2.02-0.01-3.07-0.05-16.5-0.09-32.9-0.12-49.4-0.04-17-0.08-33.9-0.13-50.9-0.03-9.5-0.05-19-0.07-28.5-0.02-8.08-0.04-16.2-0.07-24.2-0.01-4.12-0.03-8.24-0.03-12.4 0-3.77-0.02-7.54-0.03-11.3-0.01-2.01-0.01-4.01-0.01-6.02-0.06-9.4-0.69-16.1-6.29-23.9v-2h-2c-0.72-0.91-1.44-1.82-2.19-2.75-6.65-8.09-14.9-8.28-24.8-9.25-1.81-0.19-3.61-0.38-5.42-0.56-4.86-0.5-9.72-0.98-14.6-1.44l1-4c14-0.26 28-0.5 42-0.74 8.8-0.15 17.6-0.31 26.4-0.49 6.09-0.12 12.2-0.23 18.3-0.34 3.69-0.06 7.38-0.13 11.1-0.21 4.15-0.09 8.31-0.16 12.5-0.23 1.83-0.05 1.83-0.05 3.7-0.09 6.69-0.1 12.9 0.41 19.4 1.64zm-77.3 36.5v306h1v-306h-1zm267 325 1 3zm-5 9 1 2zm-262 8v23h1v-23h-1z" fill="#F9FAFB"/>
<path transform="translate(656 686)" d="m0 0c4.19 0.13 4.19 0.13 5.38 1.31 3.05 0.11 6.08 0.15 9.14 0.15 0.97 0.01 1.94 0.01 2.94 0.02 3.28 0.01 6.56 0.02 9.84 0.02 2.35 0.01 4.69 0.02 7.03 0.03 5.06 0.02 10.1 0.03 15.2 0.04 7.31 0.02 14.6 0.05 21.9 0.07 11.9 0.05 23.7 0.08 35.6 0.12 0.71 0 1.42 0 2.15 0.01 5.04 0.01 10.1 0.03 15.1 0.04 5.76 0.02 11.5 0.04 17.3 0.05 1.07 0.01 1.07 0.01 2.15 0.01 11.8 0.04 23.6 0.08 35.5 0.12 7.94 0.03 15.9 0.05 23.8 0.07 4.93 0.02 9.87 0.03 14.8 0.05 2.3 0.01 4.6 0.02 6.89 0.02 3.13 0.01 6.25 0.02 9.38 0.03h2.78c6.26 0.04 6.26 0.04 8.49 1.15 0.33 23.4 0.65 46.9 1 71 0.65 0.33 1.31 0.66 2 1v5h-3v-2h-3c-1.62-2.24-2.82-4.18-3.43-6.89-0.9-3.29-2.76-5.98-4.52-8.89-1.05-2.22-1.05-2.22-1.05-6.22-1-0.33-1.99-0.66-3-1-1.03-1.85-1.03-1.85-1.94-4.19-2.22-5.31-5.07-9.68-8.82-14.1-2.24-2.75-2.24-2.75-2.24-4.75h-2c-1.17-1.13-2.33-2.27-3.46-3.43-6.64-6.73-13.1-11-21.9-14.2-3.62-1.38-3.62-1.38-5.62-3.38-5.79-1.9-11.8-2.38-17.9-2.62-0.84-0.04-1.68-0.08-2.55-0.12-29.1-2.54-29.1-2.54-56.6 3.74h-2v2c-0.91 0.25-1.82 0.5-2.76 0.75-3.56 1.37-4.96 2.22-7.24 5.25-0.4 2.82-0.56 5.25-0.54 8.07 0 0.81-0.01 1.62-0.02 2.45-0.03 2.68-0.02 5.36-0.02 8.05-0.01 1.87-0.03 3.74-0.04 5.61-0.04 4.93-0.06 9.87-0.06 14.8-0.02 7.87-0.08 15.7-0.13 23.6-0.02 2.74-0.03 5.47-0.03 8.21-0.03 7.94-0.17 15.8-0.94 23.7-0.34 3.79-0.35 7.56-0.32 11.4v2.3c0.01 2.38 0.02 4.75 0.03 7.12 0.01 1.63 0.01 3.27 0.02 4.9 0.01 3.95 0.02 7.9 0.05 11.8 3.74 1.25 7.24 1.18 11.1 1.21 0.83 0.01 1.66 0.02 2.51 0.03 2.75 0.03 5.49 0.05 8.23 0.08 1.9 0.02 3.8 0.04 5.71 0.06 5 0.06 10 0.11 15 0.15 5.11 0.05 10.2 0.11 15.3 0.17 10 0.1 20 0.2 30.1 0.3v-2c0.92-0.45 1.85-0.91 2.81-1.37 3.22-1.57 3.22-1.57 6.19-3.63 5.75-1.12 11.7-1.89 17 1 2.91 2.69 4.72 4.41 5.4 8.37 0.09 2.68 0.03 5.32-0.09 8.01-0.04 1.39-0.04 1.39-0.07 2.81-0.06 2.27-0.14 4.54-0.24 6.81-2.98 1.71-5.1 2.25-8.52 2.23h-2.54c-0.87-0.02-1.74-0.03-2.63-0.04h-2.67c-6.5-0.05-6.5-0.05-7.64-1.19-1.14-0.14-2.27-0.29-3.44-0.43-3.56-0.57-3.56-0.57-5.56-2.57v-3c-10.6-0.17-21.2-0.34-31.9-0.49-4.93-0.07-9.87-0.15-14.8-0.23-4.76-0.08-9.52-0.15-14.3-0.22-1.81-0.02-3.63-0.05-5.45-0.08-2.54-0.05-5.08-0.08-7.62-0.11-0.76-0.02-1.51-0.04-2.28-0.05-3.85-0.03-6.36 0.32-9.7 2.18-0.03 12.8-0.05 25.5-0.06 38.3 0 5.93-0.01 11.8-0.02 17.8-0.01 5.71-0.02 11.4-0.02 17.1 0 2.19-0.01 4.37-0.01 6.56-0.01 3.05-0.01 6.09-0.01 9.14 0 1.37 0 1.37-0.01 2.77-0.4 3.99-0.4 3.99 1.13 7.34 0.12 2.37 0.18 4.71 0.21 7.07 0.02 1.47 0.05 2.94 0.08 4.41 0.04 2.32 0.08 4.63 0.11 6.95 0.02 2.24 0.07 4.47 0.12 6.71 0 0.68 0 1.36 0.01 2.06 0.12 5 1.19 8.43 3.47 12.8 2.15 1.4 2.15 1.4 5 2 0.63 0.25 1.27 0.49 1.93 0.74 5.05 1.9 9.61 2.63 15 2.76 2.93 0.48 4.5 1.21 7.11 2.51 7.62 3.18 15.8 2.51 24 2.4 2.83-0.03 5.65-0.04 8.48-0.04 1.81-0.01 3.61-0.02 5.42-0.03 1.26 0 1.26 0 2.54-0.01 5.37-0.09 9.59-0.35 13.6-4.33 1.99-0.28 1.99-0.28 4.42-0.34 0.88-0.03 1.76-0.06 2.66-0.09 0.92-0.02 1.84-0.04 2.79-0.07 1.81-0.04 3.62-0.09 5.43-0.15 0.8-0.02 1.61-0.04 2.44-0.06 2.49-0.32 4.13-0.96 6.26-2.29 0.33-0.66 0.65-1.32 1-2 0.99-0.33 1.98-0.66 3-1 0.22-0.62 0.45-1.23 0.68-1.87 1.81-2.93 4.02-3.05 7.16-4.09 4.04-1.94 6.41-5.6 9.16-9.04l5-5c3.35-3.64 6.62-7.26 9.31-11.4 1.69-2.57 1.69-2.57 3.69-3.57 0.73-1.66 1.46-3.32 2.12-5.01 0.88-1.99 0.88-1.99 2.25-4.19 2.1-3.61 3.59-7.37 5.13-11.2 1.98-4.97 4.02-9.82 6.5-14.6 1.31 0.33 2.63 0.66 4 1 0.05 3.96 0.09 7.92 0.12 11.9 0.02 1.13 0.03 2.25 0.05 3.42 0.01 1.07 0.01 2.15 0.02 3.26 0.01 0.99 0.02 1.99 0.03 3.01-0.22 2.43-0.22 2.43-2.22 4.43-0.33 2.45-0.33 2.45-0.31 5.32-0.01 1.11-0.03 2.23-0.05 3.37-0.01 1.21-0.02 2.41-0.02 3.65-0.02 1.24-0.04 2.47-0.06 3.74-0.04 3.28-0.08 6.56-0.11 9.84-0.04 4.63-0.1 9.25-0.16 13.9-0.03 2.46-0.06 4.92-0.08 7.39-0.02 1.67-0.02 1.67-0.04 3.37-0.01 0.99-0.02 1.97-0.03 2.98-0.14 2.47-0.14 2.47-1.14 5.47-3.37 2.25-4.54 2.27-8.48 2.32-1.72 0.03-1.72 0.03-3.47 0.06-1.26 0.01-2.52 0.02-3.82 0.03-1.35 0.02-2.7 0.04-4.04 0.06-3.7 0.05-7.4 0.09-11.1 0.12-2.36 0.03-4.72 0.05-7.08 0.08-38.2 0.46-76.4 0.52-115 0.52-7.52 0-15 0.01-22.6 0.02-7.43 0.02-14.8 0.02-22.3 0.02-4.36 0-8.72 0-13.1 0.01-30.6 0.08-30.6 0.08-45.6-1.13-0.99-0.07-1.97-0.15-2.99-0.23-6.58-0.62-6.58-0.62-8.84-2.88 1.17-1.98 1.17-1.98 3-4 2.41-0.42 2.41-0.42 5.18-0.31 1.47 0.05 1.47 0.05 2.96 0.1 2.42 0.18 4.77 0.46 7.17 0.84 4 0.4 6-0.14 9.69-1.63 1.23-0.33 2.47-0.66 3.74-1 3.3-0.74 3.3-0.74 5.26-3 1.94-0.63 1.94-0.63 4.12-1.12 1.28-0.29 2.56-0.58 3.88-0.88 0.97-3.3 1.17-6.39 1.28-9.83 0.05-1.69 0.05-1.69 0.11-3.42 0.03-1.17 0.07-2.35 0.11-3.56 0.06-2.32 0.14-4.64 0.21-6.96 0.03-1.02 0.06-2.05 0.1-3.11 0.19-3.12 0.19-3.12 0.69-6.2 0.58-4.6 0.64-9.07 0.63-13.7 0-1.45 0-1.45 0.01-2.93v-9.7c0-2.32 0.01-4.64 0.01-6.96 0.01-6.31 0.01-12.6 0.01-18.9 0-3.94 0.01-7.89 0.01-11.8 0.01-13.1 0.01-26.2 0.01-39.2v-2.13-2.14c0-11.4 0.01-22.8 0.02-34.2 0.02-11.7 0.02-23.5 0.02-35.2 0-6.57 0.01-13.2 0.02-19.7 0.01-6.2 0.01-12.4 0-18.6 0-2.26 0-4.52 0.01-6.78 0.03-14.1-0.65-27.9-2.25-41.9-0.79-0.29-1.57-0.57-2.38-0.87-2.62-1.13-2.62-1.13-4.62-3.13-8.22-3.24-16.7-3.24-25.4-3.56-1.12-0.04-2.23-0.09-3.38-0.13-2.73-0.11-5.46-0.21-8.18-0.31-0.66-1.32-1.33-2.64-2-4 1.82-3.89 3.56-4.29 7.62-4.31zm41.4 35.3 1 2z" fill="#F9FAFB"/>
<path transform="translate(381,827)" d="m0 0h1v95h-1v-95z" fill="#000102"/>
<path transform="translate(1133,692)" d="m0 0h22v1h-22v-1z" fill="#000102"/>
<path transform="translate(1165,1021)" d="m0 0h17v1h-17v-1z" fill="#000102"/>
<path transform="translate(750,791)" d="m0 0h1v11h-1v-11z" fill="#000102"/>
<path transform="translate(332,1013)" d="m0 0h9v1h-9v-1z" fill="#000102"/>
<path transform="translate(300,1013)" d="m0 0h5v1h-5v-1z" fill="#000102"/>
<path transform="translate(1114,1021)" d="m0 0 4 1z" fill="#000102"/>
<path transform="translate(841,861)" d="m0 0c3 1 3 1 3 1z" fill="#000102"/>
<path transform="translate(837,697)" d="m0 0c3 1 3 1 3 1z" fill="#000102"/>
<path transform="translate(1198,1015)" d="m0 0 2 1z" fill="#000102"/>
<path transform="translate(656,1013)" d="m0 0 2 1z" fill="#000102"/>
<path transform="translate(272,1007)" d="m0 0 2 1z" fill="#FAFBFC"/>
<path transform="translate(1099,700)" d="m0 0 2 1z" fill="#000102"/>
</svg>
