<?xml version="1.0" encoding="UTF-8"?>
<svg version="1.1" viewBox="0 0 1600 1600" width="1280" height="1280" xmlns="http://www.w3.org/2000/svg">
<path transform="translate(1126 688)" d="m0 0c7.23-0.15 14.5-0.26 21.7-0.33 2.44-0.03 4.89-0.06 7.33-0.11 13.7-0.26 24.6-0.32 36.7 6.51 2.31 1.04 4.65 2.01 7 3 2.78 1.43 5.51 2.95 8.25 4.47 1.65 0.92 3.31 1.82 5 2.68 4.93 2.55 9.33 5.63 13.8 8.97 0.57 0.44 1.15 0.87 1.74 1.31 2.74 2.13 4.14 3.21 5.26 6.57 1.32 0.37 2.66 0.7 4 1 1.74 1.23 1.74 1.23 3.43 2.75 0.56 0.49 1.12 0.98 1.69 1.48 23.2 21.8 38.8 46.3 45.4 77.8 0.52 2.4 1.16 4.74 1.86 7.09 0.34 1.15 0.34 1.15 0.69 2.32 0.86 2.7 0.86 2.7 2.4 5.63 1.89 4.41 1.94 8.56 1.95 13.3 0 0.88 0.01 1.76 0.02 2.67 0.01 1.85 0.01 3.71 0.01 5.56 0 2.82 0.04 5.64 0.08 8.46 0.01 1.81 0.01 3.62 0.01 5.43 0.02 0.84 0.03 1.67 0.05 2.53-0.06 5.49-1.27 8.8-4.5 13.2-1.73 2.62-1.83 5.07-2.02 8.17-1 8.91-4.4 16.5-8.12 24.6-0.44 0.95-0.88 1.9-1.33 2.88-4.65 9.62-10.3 18.7-16.2 27.6-1.57 2.44-1.57 2.44-2.5 5.22-0.32 0.74-0.65 1.48-0.98 2.25-0.99 0.33-1.98 0.66-3 1-0.71 1.31-1.37 2.65-2 4-4.76 7.38-10.7 12.7-17.6 18.1-1.97 1.56-3.86 3.15-5.75 4.8-2.57 2.04-4.64 3.01-7.68 4.13-1.34 0.99-2.68 1.99-4 3h-2v2h-2l-1 3c-2.31 0.33-4.62 0.66-7 1v2c-0.95 0.45-1.9 0.91-2.88 1.37-3.13 1.43-3.13 1.43-5.12 3.63-1.59 0.53-3.2 1.01-4.82 1.44-3.84 1.1-6.8 2.39-10.2 4.56-2.97 1.41-5.98 2.7-9 4-0.95 0.43-1.9 0.86-2.88 1.31-2.12 0.69-2.12 0.69-5.12-0.31v-2h-4c-0.27 0.62-0.54 1.24-0.82 1.87-1.18 2.13-1.18 2.13-4.18 4.13-2.6 0.38-2.6 0.38-5.5 0.56-3.13 0.21-5.52 0.44-8.5 1.44-1.62 0.1-3.25 0.14-4.87 0.14-1.48 0.01-1.48 0.01-2.99 0.02-1.07 0-2.14 0.01-3.24 0.01-1.11 0-2.21 0-3.35 0.01h-7.02c-3.56 0.01-7.11 0.02-10.7 0.04-2.28 0.01-4.56 0.01-6.84 0.01-1.58 0.01-1.58 0.01-3.19 0.02-8.46-0.03-16-1.09-23.8-4.25-3.6-0.55-7.2-0.95-10.8-1.34-3.48-0.72-3.87-1.21-6.18-3.66-2.51-1.15-5.01-2.22-7.57-3.25-5.96-2.49-11.1-5.29-16.3-9.19-2.65-1.91-5.4-3.27-8.35-4.66-2.83-1.4-5.3-3.01-7.82-4.9v-2c-0.72-0.22-1.43-0.44-2.16-0.67-3.46-1.62-5.75-3.91-8.34-6.64-0.92-0.95-1.84-1.89-2.78-2.87-0.9-0.93-1.8-1.86-2.72-2.82-0.88-0.88-1.76-1.75-2.67-2.65-2.96-2.98-5.65-6.12-8.33-9.35-0.62-0.72-1.24-1.43-1.87-2.17-4.04-4.87-6.11-8.56-7.13-14.8h-2c-3.33-5.77-6.27-11.3-8.16-17.6-1.01-2.82-2.44-5.25-3.91-7.85-3.07-5.88-3.86-11.3-4.35-17.8-0.28-3.69-0.49-5.56-2.58-8.7-4.34-10-4.57-19.5-4.42-30.3 0.04-2.63 0.05-5.26 0.05-7.9 0.01-1.69 0.02-3.39 0.03-5.08 0-0.78 0-1.56 0.01-2.36 0.08-4.81 0.81-8.83 2.33-13.4h2c0.14-0.91 0.29-1.82 0.43-2.75 0.57-3.25 0.57-3.25 1.09-5.17 0.52-2.26 0.62-4.38 0.73-6.71 0.51-5.84 2.85-10.4 5.75-15.4h2c0.17-0.71 0.34-1.43 0.51-2.16 1.51-5.95 3.18-10.7 6.49-15.8 0.87-1.4 1.75-2.79 2.62-4.19 0.41-0.63 0.81-1.27 1.23-1.92 1.16-1.92 2.17-3.87 3.15-5.89h2c0.22-0.7 0.45-1.4 0.68-2.13 2.5-5.46 6.93-9.84 11.3-13.9h2v-3c1.5-1.62 1.5-1.62 3.56-3.31 0.73-0.62 1.46-1.23 2.21-1.87 0.74-0.6 1.47-1.2 2.23-1.82 3.69-3.03 7.05-5.96 10.1-9.69 2.6-3.17 5.16-4.64 8.94-6.31l3-3c1.6-1.2 3.23-2.36 4.87-3.5 0.84-0.59 1.69-1.18 2.56-1.78 4.7-3.15 9.33-5.56 14.6-7.72 0.62-0.28 1.25-0.57 1.89-0.86 2.89-1.29 4.91-2.14 8.11-2.14v-2c0.94-0.26 1.88-0.51 2.85-0.77 1.24-0.35 2.49-0.69 3.77-1.04 1.23-0.34 2.46-0.68 3.73-1.02 3.63-1.07 3.63-1.07 6.79-2.75 10.5-5.23 25.4-3.14 37-3.37 2.04-0.04 4.09-0.08 6.14-0.12zm-51.2 19.1c-0.86 0.52-0.86 0.52-1.73 1.05-8.67 5.27-8.67 5.27-16.3 12-0.77 0.41-1.53 0.82-2.32 1.25-6 3.91-10 9.88-13.4 16.1-1.5 2.03-2.96 2.64-5.23 3.67-4.28 4.27-5.98 9.43-8 15-0.43 1.17-0.86 2.34-1.3 3.55-1.25 3.48-2.49 6.96-3.7 10.4-0.37 0.88-0.74 1.77-1.11 2.68-1.35 5.02-1.37 10-1.52 15.2-0.04 1.07-0.08 2.14-0.12 3.25-0.09 2.62-0.18 5.25-0.25 7.88-0.81 0.29-1.61 0.58-2.44 0.87-2.7 0.86-2.7 0.86-3.56 3.13-0.09 1.82-0.12 3.64-0.12 5.46v3.46c0.01 1.23 0.01 2.47 0.02 3.74v3.83c0.01 3.35 0.02 6.71 0.03 10.1 0.01 3.42 0.01 6.85 0.02 10.3 0.01 6.73 0.03 13.4 0.05 20.2l6 3c0.01 0.63 0.02 1.26 0.02 1.9 0.29 15.2 1.82 27.1 7.98 41.1 1.22 3.52 2.43 7.06 3.62 10.6 1.42 3.52 3.22 6.29 5.38 9.4 0.88 1.65 1.74 3.31 2.56 5 0.43 0.86 0.85 1.73 1.29 2.62 0.86 1.79 1.7 3.58 2.52 5.38 2.03 3.75 4.45 7.15 6.93 10.6 1.28 1.8 2.5 3.64 3.7 5.5 6.71 9.66 15 17.6 26 21.9 0.84 0.68 1.69 1.36 2.56 2.06 2.3 2.07 2.3 2.07 5.07 2.74 2.84 1.01 4.65 1.95 7.1 3.58 16.1 10 33.2 8.62 51.5 7.76 5.36-0.23 10.4 0.16 15.7 0.86 0.14-0.62 0.29-1.24 0.43-1.88 0.57-2.12 0.57-2.12 1.57-4.12 2.94-0.87 5.92-1.48 8.92-2.12 3.12-0.89 5.34-2.17 8.08-3.88 1.23-0.33 2.47-0.66 3.75-1 1.07-0.33 2.14-0.66 3.25-1l1-3c1.57-0.43 1.57-0.43 3.18-0.88 4.25-1.25 6.75-3.06 9.82-6.12 0.6-0.6 1.2-1.21 1.82-1.83 3.14-3.35 5.43-6.24 6.93-10.6 0.41-1.17 0.82-2.35 1.25-3.56 0.99-0.33 1.98-0.66 3-1 1.16-1.92 1.16-1.92 2-4 1-2 1-2 3-3v-3h2v-2l2-1c0.62-2.33 1.15-4.69 1.62-7.06 0.26-1.29 0.52-2.58 0.79-3.91 0.19-1 0.39-2 0.59-3.03h2c0.12-0.86 0.24-1.71 0.36-2.59 0.17-1.11 0.34-2.21 0.51-3.35 0.24-1.65 0.24-1.65 0.49-3.34 0.21-0.9 0.42-1.8 0.64-2.72l2-1c-0.03-1.42-0.03-1.42-0.07-2.88 0.07-3.12 0.07-3.12 1.07-5.12-0.4-2.1-0.4-2.1-1-4h-2v-11c2.31-0.33 4.62-0.66 7-1v-2l2-1c0.02-4.84 0.04-9.67 0.05-14.5 0.01-1.64 0.01-3.28 0.02-4.91 0.05-8.48 0.02-17-0.35-25.4-0.05-1.25-0.1-2.5-0.15-3.79-0.81-4.75-3.12-7.49-6.12-11.1-1.71-2.62-1.77-3.73-1.33-6.78 0.24-1.1 0.24-1.1 0.47-2.22 0.57-3.15 0.09-5.95-0.34-9.1-0.25-2.12-0.25-2.12-0.19-5.75-0.11-5.99-2.11-10.6-4.86-15.9-1.89-3.93-3.44-7.99-5.01-12.1-3.07-7.87-7.16-14.9-11.6-22.1-0.56-0.94-1.13-1.88-1.71-2.85-2.87-4.68-5.31-8.36-9.91-11.5-1.02-1.66-2.01-3.33-3-5-1.12-1.44-2.27-2.86-3.44-4.25-0.58-0.69-1.15-1.37-1.75-2.08-1.96-1.81-3.21-2.28-5.81-2.67v-2c-0.8-0.38-0.8-0.38-1.61-0.77-0.71-0.35-1.42-0.69-2.14-1.04-0.7-0.34-1.4-0.68-2.11-1.02-2.14-1.17-2.14-1.17-3.92-2.57-13.8-10-33.3-15.8-50.1-15.7-0.73-0.01-1.47-0.01-2.23-0.01-1.55 0-3.1 0-4.65 0.01-2.33 0-4.66 0-6.99-0.01-18.9-0.41-18.9-0.41-36.2 6.14zm-107 93v9h1v-9h-1zm264 19 1 2zm-271 8 1 2zm7 60 1 2zm197 101 4 1z" fill="#2B2E9F"/>
<path transform="translate(315 592)" d="m0 0c1.26-0.01 2.52-0.01 3.82-0.02h4.18c1.47-0.01 2.94-0.01 4.41-0.02 3.99-0.01 7.99-0.02 12-0.02 2.49 0 4.99-0.01 7.48-0.01 7.8-0.01 15.6-0.02 23.4-0.03 9.01 0 18-0.02 27-0.05 6.97-0.02 13.9-0.03 20.9-0.03 4.15 0 8.31-0.01 12.5-0.03 3.91-0.01 7.82-0.02 11.7-0.01 1.43 0 2.86 0 4.3-0.01 1.96-0.01 3.92-0.01 5.88 0h3.32c3.35 0.42 5.27 1.34 7.95 3.37v2c-3.37 2.24-3.85 2.16-7.63 1.56-1.45-0.22-2.91-0.42-4.37-0.56l-1 1c-1.98 0.13-3.96 0.23-5.94 0.31-6.24 0.45-11.6 1.5-17.1 4.69-1.37 1.64-2.71 3.3-4 5-3.75 1.31-3.75 1.31-7 2-0.91 3.15-1.19 6.08-1.31 9.35-0.05 1.08-0.09 2.16-0.13 3.27-0.04 1.17-0.08 2.35-0.12 3.56-0.04 1.24-0.08 2.48-0.12 3.76-0.45 14.3-0.46 28.6-0.45 42.9 0 3.99 0 7.98-0.01 12v23.3c0.01 6.31 0.01 12.6 0 18.9v2.74 5.52c0 17.1 0 34.3 0.01 51.4v44.1c-0.01 17.1-0.01 34.2-0.01 51.4v5.47 2.72c0.01 6.31 0 12.6 0 18.9 0 7.68 0 15.4 0.01 23v11.7c-0.01 3.59-0.01 7.17 0 10.8 0 1.91 0 3.81-0.01 5.72 0.02 5.56 0.13 10.9 1.14 16.4 0.7 0.27 1.4 0.54 2.12 0.81 2.88 1.19 2.88 1.19 5.38 2.75 11.5 4.74 27.3 2.66 39.6 2.71 1.1 0.01 2.2 0.01 3.33 0.02 5.8 0.03 11.6 0.05 17.4 0.06 4.77 0.01 9.54 0.04 14.3 0.08 5.8 0.05 11.6 0.08 17.4 0.08 2.19 0.01 4.39 0.03 6.58 0.05 18.5 0.73 18.5 0.73 34.6-7.18 0.64-0.68 0.64-0.68 1.29-1.38 1.87-0.77 1.87-0.77 3.87-1.37 4.09-1.44 6.15-3.44 9.13-6.63 7.69-6.34 7.69-6.34 11-8 0.55-0.89 1.11-1.77 1.69-2.69 1.59-2.5 3.21-4.13 5.56-5.93 4.4-3.55 7.08-8.12 10-12.9 1.7-2.51 1.7-2.51 3.7-3.51 1.05-1.97 2.05-3.97 3-6h2c0.18-0.59 0.36-1.18 0.55-1.79 0.25-0.79 0.5-1.58 0.76-2.4 0.24-0.77 0.49-1.55 0.74-2.35 0.95-2.46 0.95-2.46 2.53-4.86 1.74-3.19 1.75-5.43 1.79-9.04 0.42-7.19 0.42-7.19 2.82-10.4 2.81-2.19 2.81-2.19 6-2.63 2.81 0.44 2.81 0.44 4.81 1.44 0.35 5.94 0 9.71-3 15-1.22 4.55-1.29 9.19-1.5 13.9-0.07 1.56-0.14 3.12-0.22 4.68-0.03 0.68-0.06 1.37-0.09 2.07-0.19 2.37-0.19 2.37-0.69 5.35-0.82 5.54-0.74 11.2-0.82 16.7-0.03 1.81-0.03 1.81-0.06 3.66-0.07 3.86-0.13 7.71-0.18 11.6-0.05 2.62-0.09 5.23-0.14 7.85-0.1 6.4-0.2 12.8-0.3 19.2-2.89 0.96-4.7 1.12-7.7 1.12-0.97 0.01-1.94 0.01-2.94 0.01-1.6 0-1.6 0-3.24-0.01h-3.43c-3.82 0-7.64 0-11.5-0.01h-8.19-17.7c-8.51-0.01-17-0.01-25.5-0.02-13.8 0-27.6 0-41.4-0.01-13.4-0.01-26.8-0.02-40.2-0.02-0.83 0-1.65-0.01-2.5-0.01h-12.4c-34.4-0.01-68.8-0.03-103-0.05v2c-6.88-0.87-6.88-0.87-8-2-1.69-0.07-3.38-0.08-5.06-0.06-1.38 0.01-1.38 0.01-2.79 0.03-0.71 0.01-1.42 0.02-2.15 0.03l-1 3-4-1v-2h-8v2h-3v-2h-2l-1-4c3.54-1.61 6.18-2.22 10-2.09 0.95 0.02 1.89 0.04 2.87 0.06 1.96 0.06 3.92 0.13 5.89 0.2 6.5 0.12 11.8-0.09 16.9-4.69 0.44-0.49 0.88-0.98 1.33-1.48 4.76-3.14 9.22-5.56 15-6l1-5c0.99-0.33 1.98-0.66 3-1v-357l-2-1v-3c-0.6-0.29-1.2-0.58-1.81-0.87-2.19-1.13-2.19-1.13-5.19-3.13v-2c-0.68-0.21-1.36-0.41-2.06-0.62-2.82-1.32-3.95-2.34-6.07-4.5-3.87-3.5-7.17-3.43-12.2-3.19-2.66 0.25-2.66 0.25-5.24 0.96-2.95 0.43-3.82-0.29-6.41-1.65-2.24-0.29-4.5-0.49-6.75-0.62-1.17-0.08-2.34-0.15-3.55-0.23-0.89-0.05-1.78-0.1-2.7-0.15l-1-4c3.42-1.04 6.57-1.13 10.1-1.14zm41.9 384 1 2zm-16 11-1 2h2l-1-2z" fill="#2B2E9F"/>
<path transform="translate(663 695)" d="m0 0c1.3 0 1.3 0 2.62 0.01 0.91 0 1.83-0.01 2.76-0.01h9.25 6.59c6-0.01 12-0 18-0h18.8 33.6c10.2 0.01 20.3 0.01 30.5 0h35.4 18.7c5.88-0.01 11.8-0 17.6 0h6.46c23.3-0.02 23.3-0.02 29.7 1.13 1.7 1.7 1.12 3.82 1.13 6.08-0.01 0.72-0.01 1.45-0.01 2.2v2.3c0 2.53-0.01 5.06-0.02 7.58v5.25c-0.01 4.6-0.02 9.21-0.03 13.8-0.01 4.7-0.01 9.4-0.02 14.1-0.01 9.22-0.03 18.4-0.05 27.7-4.23-3.28-6.46-5.24-7.5-10.6-0.39-2.68-0.39-2.68-2.5-5.44-0.71-1.46-1.4-2.94-2.06-4.43-0.34-0.77-0.68-1.53-1.03-2.31-0.91-2.26-0.91-2.26-1.43-4.35-0.82-3.27-2.76-6.03-4.48-8.91-1.23-2.08-2.46-4.16-3.68-6.25-0.91-1.52-0.91-1.52-1.83-3.07-1.49-2.68-1.49-2.68-2.49-5.68-0.64-0.31-1.28-0.62-1.93-0.93-2.57-1.32-2.81-2.55-4.07-5.07-1.7-0.99-1.7-0.99-4-2-1.73-0.82-1.73-0.82-3.49-1.65-1.32-0.62-2.63-1.23-3.94-1.85-0.66-0.3-1.32-0.61-1.99-0.93-3.49-1.63-7-3.15-10.6-4.57-1.03-0.51-2.06-1.03-3.12-1.56-4.01-1.76-7.99-1.93-12.3-2.13-2.55-0.31-2.55-0.31-4.35-1.31-2.76-1.25-4.82-1.22-7.84-1.19-1.6 0.01-1.6 0.01-3.24 0.02-1.11 0.01-2.22 0.03-3.37 0.05-1.12 0.01-2.25 0.02-3.41 0.03-2.78 0.02-5.56 0.05-8.34 0.09v1h-8v-2h-3v2c-0.79 0.14-1.59 0.27-2.41 0.41-6.09 1.24-10.6 2.21-14.3 7.37-2.1 3.6-3.95 7.29-5.71 11.1-1.59 3.16-1.59 3.16-2.82 4.87-3.88 5.44-4.47 9.62-4.33 16.2-0.01 0.96-0.01 1.91-0.01 2.9 0.01 3.14 0.05 6.27 0.08 9.41 0.01 2.19 0.02 4.37 0.03 6.56 0.02 5.73 0.06 11.5 0.12 17.2 0.05 5.86 0.07 11.7 0.1 17.6 0.05 11.5 0.14 23 0.24 34.4 1.58 0.34 3.15 0.67 4.72 0.99 0.88 0.19 1.75 0.37 2.66 0.56 5.47 0.95 10.8 0.58 16.3-0.05 5.25-0.54 10.4-0.64 15.7-0.63h2.84 5.88c3.02 0.01 6.03 0 9.05 0h5.73c0.9 0 1.81 0 2.74-0.01 6.3 0.03 6.3 0.03 7.41 1.14 1.98 0.08 3.96 0.09 5.94 0.07 1.23-0.01 2.45-0.02 3.71-0.03 2.58-0.02 5.17-0.05 7.75-0.08 6.29-0.03 12.4-0.06 18.6 1.04 1 1 1 1 1.12 2.95-0.01 0.84-0.01 1.67-0.02 2.53 0 0.9-0.01 1.79-0.01 2.72-0.01 0.95-0.02 1.89-0.02 2.87-0.01 0.95-0.01 1.9-0.02 2.87-0.01 2.36-0.03 4.71-0.05 7.06-2.89 0.83-5.46 1.13-8.46 1.12-1.34 0.01-1.34 0.01-2.7 0.01-0.97-0.01-1.93-0.01-2.93-0.01h-3.1c-3.39 0-6.78-0.01-10.2-0.02h-7.04c-6.18-0.01-12.4-0.02-18.6-0.03-6.3-0.01-12.6-0.01-18.9-0.02-12.4-0.01-24.8-0.03-37.1-0.05-1.71 3.43-1.17 7.36-1.19 11.1-0.01 0.94-0.02 1.89-0.02 2.87-0.03 3.14-0.05 6.29-0.06 9.43-0.01 1.62-0.01 1.62-0.02 3.26l-0.06 17.1c-0.01 5.87-0.06 11.7-0.11 17.6-0.03 4.52-0.04 9.05-0.05 13.6-0.01 2.16-0.02 4.32-0.05 6.48-0.24 16.4-0.24 16.4 5.56 31.5 1.52 3.05 1.34 6.23 1.53 9.59 0.56 2.85 1.1 3.77 3.47 5.41 2.34 0.51 2.34 0.51 4.88 0.57 3.82 0.27 6.59 0.94 10.1 2.43 1.35 0.2 2.71 0.36 4.07 0.5 3.93 0.5 3.93 0.5 5.71 1.52 3.21 1.42 6.34 1.24 9.79 1.17 0.7-0.01 1.41-0.01 2.13-0.02 5.8-0.08 11.5-0.48 17.3-1.17v-1c1.14-0.05 2.27-0.09 3.44-0.14 1.52-0.08 3.04-0.16 4.56-0.23 0.75-0.03 1.49-0.06 2.26-0.1 5.16-0.26 9.75-1.18 14.7-2.53 1.79-0.31 3.58-0.6 5.38-0.87 7.45-1.33 14.5-3.23 19.6-9.13 0.99-0.33 1.98-0.66 3-1v-2c6.63-2 6.63-2 10-2l-1-3c0.56-0.51 1.12-1.03 1.69-1.56 4.81-5.07 7.78-9.58 9.31-16.4 0.99 0.33 1.98 0.66 3 1l-1-3c1.27-2.52 2.48-4.52 4.57-6.43 2.05-2.24 2.6-4.69 3.43-7.57h2c0.15-1.24 0.15-1.24 0.3-2.51 0.82-4.08 2.22-7.53 3.95-11.3 0.29-0.68 0.58-1.36 0.87-2.06 0.9-1.96 0.9-1.96 2.88-5.13 2.63-0.69 2.63-0.69 5-1-0.14 0.96-0.28 1.92-0.42 2.9-1.41 10.1-1.91 20-1.99 30.2-0.02 1.57-0.04 3.14-0.06 4.7-0.05 4.07-0.09 8.14-0.13 12.2-0.04 4.17-0.09 8.35-0.14 12.5-0.09 8.15-0.18 16.3-0.26 24.4-5.94 0.67-11.8 1.13-17.8 1.1h-2.05c-2.11-0.01-4.21-0.02-6.32-0.03-1.45-0.01-2.9-0.01-4.35-0.02-3.51-0.01-7.02-0.03-10.5-0.05v-2h-3v2c-10.1 0-10.1 0-14.7-0.07-1.89-0.02-3.77-0.03-5.66-0.05-0.95-0.02-1.89-0.03-2.87-0.05-4.87-0.04-8.24 0.28-12.8 2.17-2.94 0.25-5.86 0.19-8.81 0.13-0.79-0.01-1.58-0.02-2.39-0.03-1.93-0.02-3.86-0.06-5.8-0.1v-2h-2v2h-9l-1-2c-0.99-0.33-1.98-0.66-3-1v3h-11v-2c-0.97 0.19-1.94 0.37-2.93 0.57-1.01 0.14-2.03 0.28-3.07 0.43l-1-1c-1.51-0.07-3.02-0.08-4.53-0.06-0.96 0.01-1.91 0.02-2.9 0.02-1.98 0.03-3.96 0.06-5.95 0.08-5.88 0.05-11.7-0.14-17.6-0.53-9.19-0.6-18.4-0.66-27.6-0.64-2.75 0.01-5.5 0-8.24 0-8.63-0.01-17.2 0.11-25.7 0.92-3.99 0.34-7.94 0.17-11.9-0.01-1.54-0.06-1.54-0.06-3.1-0.13-1.07-0.05-2.13-0.1-3.23-0.15-1.08-0.04-2.15-0.09-3.27-0.14l-7.98-0.36c-0.49-1.48-0.49-1.48-1-3l1-2c6.35-1.05 12.5-1.03 19-0.97 3.46-0.03 6.65-0.39 10-1.03 0.1-0.59 0.2-1.18 0.3-1.8 0.84-2.62 1.82-3.6 3.89-5.38 0.57-0.51 1.14-1.02 1.73-1.55 2.64-1.6 5.05-1.82 8.08-2.27 2.53-15.4 3.44-30.4 3.41-45.9 0-2.3 0.01-4.61 0.02-6.92 0.02-6.18 0.01-12.4 0.01-18.6 0-5.18 0-10.4 0.01-15.5 0.01-12.9 0.01-25.8 0-38.7-0.01-11.2 0-22.4 0.02-33.6 0.03-11.5 0.04-23.1 0.03-34.6 0-6.46 0-12.9 0.02-19.4 0.01-6.06 0.01-12.1-0.01-18.2 0-2.22 0-4.44 0.01-6.67 0.01-3.03 0-6.07-0.02-9.1 0.01-0.88 0.02-1.75 0.03-2.66-0.07-5.75-1.19-10.3-4.53-15.1l-2-1v-2c-0.78-0.31-1.56-0.62-2.37-0.93-2.63-1.07-2.63-1.07-4.63-2.07v-2c-12-3.18-22.5-5.7-35-4-0.04-2-0.04-4 0-6 1.86-1.85 4.5-1.12 6.97-1.13zm225 256 1 4zm-4 8 1 2zm-4 6-1 2h2l-1-2z" fill="#2B2E9F"/>
<path transform="translate(137,792)" d="m0 0c11.9-0.05 23.7-0.08 35.6-0.1 5.51-0.01 11-0.03 16.5-0.05 5.32-0.02 10.6-0.03 16-0.04 2.03 0 4.05-0.01 6.08-0.02 2.84-0.02 5.68-0.02 8.53-0.02 0.83 0 1.66-0.01 2.52-0.02 5.26 0.02 9.77 0.79 14.8 2.25 0.25 7.62 0.25 7.62-2 11-5.73 1.11-11.4 1.11-17.2 1.02-1.32-0.01-1.32-0.01-2.66-0.03-2.88-0.03-5.76-0.07-8.64-0.11-2.01-0.03-4.01-0.05-6.02-0.07-5.26-0.07-10.5-0.13-15.8-0.2-5.38-0.08-10.8-0.14-16.1-0.21-10.5-0.12-21.1-0.26-31.6-0.4-0.39-1.41-0.76-2.83-1.12-4.25-0.21-0.79-0.42-1.58-0.64-2.39-0.28-2.78 0.31-4.02 1.76-6.36z" fill="#2C2FA0"/>
<path transform="translate(1376 792)" d="m0 0c1.34-0.01 1.34-0.01 2.7-0.01 2.96-0.01 5.91-0.01 8.87-0.01 2.05-0.01 4.1-0.01 6.15-0.01 4.3-0.01 8.61-0.01 12.9-0.01 5.52 0 11-0.01 16.6-0.03 4.24-0.01 8.47-0.01 12.7-0.01 2.03 0 4.07-0.01 6.1-0.02 2.85-0.01 5.69 0 8.53 0 0.85 0 1.69-0.01 2.56-0.01 7.05 0.03 7.05 0.03 10.3 2.26 0.03 1.64 0.05 3.29 0.06 4.93 0.02 0.92 0.03 1.84 0.04 2.78-0.1 2.29-0.1 2.29-1.1 3.29-2.57 0.25-5.11 0.42-7.69 0.54-0.86 0.04-1.73 0.08-2.62 0.12-14.2 0.6-28.4 0.6-42.5 0.63-4.28 0.01-8.55 0.05-12.8 0.09-3.32 0.02-6.64 0.03-9.96 0.03-1.58 0.01-3.16 0.02-4.74 0.04-2.19 0.02-4.38 0.02-6.58 0.02-1.24 0-2.48 0.01-3.76 0.01-3.84-0.57-5.51-1.83-8.28-4.48 0.49-3.13 1-6 2-9 3.3-1.66 6.98-1.15 10.6-1.15z" fill="#2C2FA0"/>
<path transform="translate(792,701)" d="m0 0h23v1h-23v-1z" fill="#000002"/>
<path transform="translate(728,997)" d="m0 0h12v1h-12v-1z" fill="#000002"/>
<path transform="translate(328,599)" d="m0 0h11v1h-11v-1z" fill="#000002"/>
<path transform="translate(824,831)" d="m0 0h9v1h-9v-1z" fill="#2C2FA0"/>
<path transform="translate(666,701)" d="m0 0h5v1h-5v-1z" fill="#000002"/>
<path transform="translate(1147 1e3)" d="m0 0 4 1z" fill="#000002"/>
<path transform="translate(912,918)" d="m0 0 1 4z" fill="#000002"/>
<path transform="translate(830 1e3)" d="m0 0c3 1 3 1 3 1z" fill="#000002"/>
<path transform="translate(698,997)" d="m0 0c3 1 3 1 3 1z" fill="#000002"/>
<path transform="translate(776,985)" d="m0 0c3 1 3 1 3 1z" fill="#2C2FA0"/>
<path transform="translate(1173 1e3)" d="m0 0 2 1z" fill="#000002"/>
<path transform="translate(682 1e3)" d="m0 0 2 1z" fill="#000002"/>
<path transform="translate(334 1e3)" d="m0 0 2 1z" fill="#000002"/>
<path transform="translate(1178,997)" d="m0 0 2 1z" fill="#000002"/>
<path transform="translate(722,997)" d="m0 0 2 1z" fill="#000002"/>
<path transform="translate(1189,992)" d="m0 0 2 1z" fill="#000002"/>
<path transform="translate(540,983)" d="m0 0 2 1z" fill="#2C2FA0"/>
<path transform="translate(875,967)" d="m0 0 2 1z" fill="#2C2FA0"/>
<path transform="translate(768,831)" d="m0 0 2 1z" fill="#2C2FA0"/>
<path transform="translate(764,831)" d="m0 0 2 1z" fill="#2C2FA0"/>
<path transform="translate(759,831)" d="m0 0 2 1z" fill="#2C2FA0"/>
<path transform="translate(843,710)" d="m0 0 2 1z" fill="#000002"/>
<path transform="translate(1138,703)" d="m0 0 2 1z" fill="#000002"/>
<path transform="translate(1085,703)" d="m0 0 2 1z" fill="#161751"/>
<path transform="translate(429,603)" d="m0 0 2 1z" fill="#000002"/>
</svg>
